<svg xmlns="http://www.w3.org/2000/svg" width="1112" height="302" viewBox="0 0 1112 302">
<rect width="1112" height="302" fill="#1a1a19"/>
<style>text{font-family:"Segoe UI",Inter,Arial,sans-serif;fill:#ffffff}.title{font-size:22px;font-weight:700}.sub{font-size:12px;fill:#c3c2b7}.muted{font-size:11px;fill:#898781}.stat-label{font-size:12px;fill:#c3c2b7;font-weight:600}.stat-value{font-size:28px;font-weight:700}.axis{font-size:12px;fill:#898781}.grid{stroke:#2c2c2a;stroke-width:1}.legend{font-size:12px;fill:#c3c2b7}.name{font-size:14px;font-weight:700}.year{font-size:20px;font-weight:700}</style>
<text x="217.0" y="30" text-anchor="middle" class="year">2020</text>
<rect x="92" y="50" width="246" height="52" rx="6" fill="#1a1a19" stroke="#2c2c2a" stroke-width="1"/>
<rect x="92" y="106" width="246" height="52" rx="6" fill="#1a1a19" stroke="#2c2c2a" stroke-width="1"/>
<rect x="92" y="162" width="246" height="60" rx="6" fill="#1a1a19" stroke="#2c2c2a" stroke-width="1"/>
<rect x="92" y="226" width="246" height="52" rx="6" fill="#d95926" stroke="#2c2c2a" stroke-width="1"/>
<text x="104" y="250" class="name" fill="#1a1a19">Kazakh Speech Corpus (KSC)</text>
<text x="467.0" y="30" text-anchor="middle" class="year">2021</text>
<rect x="342" y="50" width="246" height="52" rx="6" fill="#1a1a19" stroke="#2c2c2a" stroke-width="1"/>
<rect x="342" y="106" width="246" height="52" rx="6" fill="#d95926" stroke="#2c2c2a" stroke-width="1"/>
<text x="354" y="130" class="name" fill="#1a1a19">KazakhTTS</text>
<rect x="342" y="162" width="246" height="60" rx="6" fill="#1a1a19" stroke="#2c2c2a" stroke-width="1"/>
<rect x="342" y="226" width="246" height="52" rx="6" fill="#1a1a19" stroke="#2c2c2a" stroke-width="1"/>
<text x="717.0" y="30" text-anchor="middle" class="year">2022</text>
<rect x="592" y="50" width="246" height="52" rx="6" fill="#d95926" stroke="#2c2c2a" stroke-width="1"/>
<text x="604" y="74" class="name" fill="#1a1a19">KazakhTTS2</text>
<rect x="592" y="106" width="246" height="52" rx="6" fill="#1a1a19" stroke="#2c2c2a" stroke-width="1"/>
<rect x="592" y="162" width="246" height="60" rx="6" fill="#1a1a19" stroke="#2c2c2a" stroke-width="1"/>
<rect x="592" y="226" width="246" height="52" rx="6" fill="#d95926" stroke="#2c2c2a" stroke-width="1"/>
<text x="604" y="250" class="name" fill="#1a1a19">Kazakh Speech Corpus 2 (KSC2)</text>
<text x="967.0" y="30" text-anchor="middle" class="year">2023</text>
<rect x="842" y="50" width="246" height="52" rx="6" fill="#1a1a19" stroke="#2c2c2a" stroke-width="1"/>
<rect x="842" y="106" width="246" height="52" rx="6" fill="#d95926" stroke="#2c2c2a" stroke-width="1"/>
<text x="854" y="130" class="name" fill="#1a1a19">Kazakh Speech Commands</text>
<rect x="842" y="162" width="246" height="60" rx="6" fill="#d95926" stroke="#2c2c2a" stroke-width="1"/>
<text x="854" y="186" class="name" fill="#1a1a19">Kazakh Speech Dataset (KSD /</text>
<text x="854" y="206" class="name" fill="#1a1a19">SLR140)</text>
<rect x="842" y="226" width="246" height="52" rx="6" fill="#1a1a19" stroke="#2c2c2a" stroke-width="1"/>
<text x="78" y="83.0" text-anchor="end" class="axis">Jan</text>
<text x="78" y="139.0" text-anchor="end" class="axis">Apr</text>
<text x="78" y="199.0" text-anchor="end" class="axis">Jul</text>
<text x="78" y="259.0" text-anchor="end" class="axis">Sep</text>
</svg>
