<svg xmlns="http://www.w3.org/2000/svg" width="1432" height="634" viewBox="0 0 1432 634">
<rect width="1432" height="634" fill="#fff"/>
<style>text{font-family:Inter,Segoe UI,Arial,sans-serif;fill:#172033}.title{font-size:28px;font-weight:700}.year{font-size:17px;font-weight:700}.month{font-size:13px;fill:#5b6472}.name{font-size:11px;font-weight:600}.cell{stroke:#dfe3e8;stroke-width:1}.filled{fill:#eff6ff}.empty{fill:#fafbfc}</style>
<text x="78" y="39" class="title">Kazakh speech and audio dataset releases</text>
<text x="78" y="67" class="month">Year → · Month ↓ · Dataset names appear in their release cell</text>
<text x="173.0" y="102" text-anchor="middle" class="year">2020</text>
<rect x="78" y="120" width="190" height="54" class="cell empty"/>
<rect x="78" y="174" width="190" height="54" class="cell empty"/>
<rect x="78" y="228" width="190" height="54" class="cell empty"/>
<rect x="78" y="282" width="190" height="54" class="cell empty"/>
<rect x="78" y="336" width="190" height="54" class="cell empty"/>
<rect x="78" y="390" width="190" height="54" class="cell empty"/>
<rect x="78" y="444" width="190" height="54" class="cell empty"/>
<rect x="78" y="498" width="190" height="54" class="cell filled"/>
<text x="86" y="516" class="name">Kazakh Speech Corpus</text>
<rect x="78" y="552" width="190" height="54" class="cell empty"/>
<text x="363.0" y="102" text-anchor="middle" class="year">2021</text>
<rect x="268" y="120" width="190" height="54" class="cell empty"/>
<rect x="268" y="174" width="190" height="54" class="cell empty"/>
<rect x="268" y="228" width="190" height="54" class="cell empty"/>
<rect x="268" y="282" width="190" height="54" class="cell filled"/>
<text x="276" y="300" class="name">KazakhTTS</text>
<rect x="268" y="336" width="190" height="54" class="cell empty"/>
<rect x="268" y="390" width="190" height="54" class="cell empty"/>
<rect x="268" y="444" width="190" height="54" class="cell empty"/>
<rect x="268" y="498" width="190" height="54" class="cell empty"/>
<rect x="268" y="552" width="190" height="54" class="cell empty"/>
<text x="553.0" y="102" text-anchor="middle" class="year">2022</text>
<rect x="458" y="120" width="190" height="54" class="cell filled"/>
<text x="466" y="138" class="name">KazakhTTS2</text>
<rect x="458" y="174" width="190" height="54" class="cell empty"/>
<rect x="458" y="228" width="190" height="54" class="cell empty"/>
<rect x="458" y="282" width="190" height="54" class="cell empty"/>
<rect x="458" y="336" width="190" height="54" class="cell filled"/>
<text x="466" y="354" class="name">Speech Commands</text>
<rect x="458" y="390" width="190" height="54" class="cell empty"/>
<rect x="458" y="444" width="190" height="54" class="cell empty"/>
<rect x="458" y="498" width="190" height="54" class="cell filled"/>
<text x="466" y="516" class="name">KSC2</text>
<rect x="458" y="552" width="190" height="54" class="cell empty"/>
<text x="743.0" y="102" text-anchor="middle" class="year">2023</text>
<rect x="648" y="120" width="190" height="54" class="cell empty"/>
<rect x="648" y="174" width="190" height="54" class="cell empty"/>
<rect x="648" y="228" width="190" height="54" class="cell empty"/>
<rect x="648" y="282" width="190" height="54" class="cell empty"/>
<rect x="648" y="336" width="190" height="54" class="cell empty"/>
<rect x="648" y="390" width="190" height="54" class="cell filled"/>
<text x="656" y="408" class="name">KSD / SLR140</text>
<rect x="648" y="444" width="190" height="54" class="cell empty"/>
<rect x="648" y="498" width="190" height="54" class="cell empty"/>
<rect x="648" y="552" width="190" height="54" class="cell empty"/>
<text x="933.0" y="102" text-anchor="middle" class="year">2024</text>
<rect x="838" y="120" width="190" height="54" class="cell filled"/>
<text x="846" y="138" class="name">ISSAI SKIMMED</text>
<rect x="838" y="174" width="190" height="54" class="cell empty"/>
<rect x="838" y="228" width="190" height="54" class="cell empty"/>
<rect x="838" y="282" width="190" height="54" class="cell filled"/>
<text x="846" y="300" class="name">KazEmoTTS</text>
<rect x="838" y="336" width="190" height="54" class="cell empty"/>
<rect x="838" y="390" width="190" height="54" class="cell empty"/>
<rect x="838" y="444" width="190" height="54" class="cell empty"/>
<rect x="838" y="498" width="190" height="54" class="cell empty"/>
<rect x="838" y="552" width="190" height="54" class="cell filled"/>
<text x="846" y="570" class="name">Belebele-FLEURS</text>
<text x="1123.0" y="102" text-anchor="middle" class="year">2025</text>
<rect x="1028" y="120" width="190" height="54" class="cell empty"/>
<rect x="1028" y="174" width="190" height="54" class="cell empty"/>
<rect x="1028" y="228" width="190" height="54" class="cell empty"/>
<rect x="1028" y="282" width="190" height="54" class="cell filled"/>
<text x="1036" y="300" class="name">MATERIAL Kazakh–English</text>
<rect x="1028" y="336" width="190" height="54" class="cell empty"/>
<rect x="1028" y="390" width="190" height="54" class="cell empty"/>
<rect x="1028" y="444" width="190" height="54" class="cell empty"/>
<rect x="1028" y="498" width="190" height="54" class="cell empty"/>
<rect x="1028" y="552" width="190" height="54" class="cell empty"/>
<text x="1313.0" y="102" text-anchor="middle" class="year">2026</text>
<rect x="1218" y="120" width="190" height="54" class="cell filled"/>
<text x="1226" y="138" class="name">Optimized KSC2</text>
<rect x="1218" y="174" width="190" height="54" class="cell filled"/>
<text x="1226" y="192" class="name">Kazakh Songs ASR</text>
<rect x="1218" y="228" width="190" height="54" class="cell filled"/>
<text x="1226" y="246" class="name">Common Voice v25</text>
<rect x="1218" y="282" width="190" height="54" class="cell empty"/>
<rect x="1218" y="336" width="190" height="54" class="cell filled"/>
<text x="1226" y="354" class="name">KazEGA</text>
<rect x="1218" y="390" width="190" height="54" class="cell empty"/>
<rect x="1218" y="444" width="190" height="54" class="cell filled"/>
<text x="1226" y="462" class="name">YO-CPT-kk</text>
<rect x="1218" y="498" width="190" height="54" class="cell empty"/>
<rect x="1218" y="552" width="190" height="54" class="cell empty"/>
<text x="66" y="151.0" text-anchor="end" class="month">Jan</text>
<text x="66" y="205.0" text-anchor="end" class="month">Feb</text>
<text x="66" y="259.0" text-anchor="end" class="month">Mar</text>
<text x="66" y="313.0" text-anchor="end" class="month">Apr</text>
<text x="66" y="367.0" text-anchor="end" class="month">May</text>
<text x="66" y="421.0" text-anchor="end" class="month">Jul</text>
<text x="66" y="475.0" text-anchor="end" class="month">Aug</text>
<text x="66" y="529.0" text-anchor="end" class="month">Sep</text>
<text x="66" y="583.0" text-anchor="end" class="month">Nov</text>
</svg>
