<svg xmlns="http://www.w3.org/2000/svg" width="1500" height="820" viewBox="0 0 1500 820">
<rect width="100%" height="100%" fill="#ffffff"/>
<style>text{font-family:Inter,Segoe UI,Arial,sans-serif;fill:#172033}.title{font-size:30px;font-weight:700}.sub{font-size:15px;fill:#5b6472}.axis{font-size:13px;fill:#5b6472}.label{font-size:12px;font-weight:600}.small{font-size:11px;fill:#5b6472}.grid{stroke:#dfe3e8;stroke-width:1}.axisline{stroke:#7b8492;stroke-width:1.3}</style>
<text x="115" y="42" class="title">Speech datasets without published duration</text>
<text x="115" y="68" class="sub">Count-only resources are separate; Common Voice uses release size in MB.</text>
<line x1="115" y1="730.0" x2="1115" y2="730.0" class="grid"/>
<text x="103" y="734.0" text-anchor="end" class="axis">10^1</text>
<line x1="115" y1="572.5" x2="1115" y2="572.5" class="grid"/>
<text x="103" y="576.5" text-anchor="end" class="axis">10^2</text>
<line x1="115" y1="415.0" x2="1115" y2="415.0" class="grid"/>
<text x="103" y="419.0" text-anchor="end" class="axis">10^3</text>
<line x1="115" y1="257.5" x2="1115" y2="257.5" class="grid"/>
<text x="103" y="261.5" text-anchor="end" class="axis">10^4</text>
<line x1="115" y1="100.0" x2="1115" y2="100.0" class="grid"/>
<text x="103" y="104.0" text-anchor="end" class="axis">10^5</text>
<line x1="115.0" y1="100" x2="115.0" y2="730" class="grid"/>
<text x="115.0" y="758" text-anchor="middle" class="axis">2024</text>
<line x1="490.0" y1="100" x2="490.0" y2="730" class="grid"/>
<text x="490.0" y="758" text-anchor="middle" class="axis">2025</text>
<line x1="865.0" y1="100" x2="865.0" y2="730" class="grid"/>
<text x="865.0" y="758" text-anchor="middle" class="axis">2026</text>
<line x1="115" y1="730" x2="1115" y2="730" class="axisline"/>
<text transform="translate(28 415.0) rotate(-90)" text-anchor="middle" class="axis">Published count / release MB (log scale)</text>
<circle cx="115.0" cy="204.8" r="8.3" fill="#2563eb" fill-opacity="0.78" stroke="#fff" stroke-width="1.5"><title>ISSAI SKIMMED — 2024-01 — 21,617 clips</title></circle>
<path d="M123.3,204.8 C150.0,204.8 1117.0,105.0 1131.0,105.0" fill="none" stroke="#2563eb" stroke-opacity="0.36"/>
<text x="1137" y="103.0" class="label">ISSAI SKIMMED</text>
<text x="1137" y="117.0" class="small">2024-01 · 21,617 clips</text>
<circle cx="427.5" cy="422.2" r="7.0" fill="#059669" fill-opacity="0.78" stroke="#fff" stroke-width="1.5"><title>Belebele-FLEURS — 2024-11 — 900 questions</title></circle>
<path d="M434.5,422.2 C462.5,422.2 1117.0,328.3 1131.0,328.3" fill="none" stroke="#059669" stroke-opacity="0.36"/>
<text x="1137" y="326.3" class="label">Belebele-FLEURS</text>
<text x="1137" y="340.3" class="small">2024-11 · 900 questions</text>
<circle cx="927.5" cy="590.7" r="5.9" fill="#7c3aed" fill-opacity="0.78" stroke="#fff" stroke-width="1.5"><title>Common Voice v25 — 2026-03 — 76.67 MB; living dataset</title></circle>
<path d="M933.4,590.7 C962.5,590.7 1117.0,551.7 1131.0,551.7" fill="none" stroke="#7c3aed" stroke-opacity="0.36"/>
<text x="1137" y="549.7" class="label">Common Voice v25</text>
<text x="1137" y="563.7" class="small">2026-03 · 76.67 MB; living dataset</text>
<circle cx="990.0" cy="102.4" r="9.0" fill="#d97706" fill-opacity="0.78" stroke="#fff" stroke-width="1.5"><title>KazEGA — 2026-05 — 96,582 utterances</title></circle>
<path d="M999.0,102.4 C1025.0,102.4 1117.0,775.0 1131.0,775.0" fill="none" stroke="#d97706" stroke-opacity="0.36"/>
<text x="1137" y="773.0" class="label">KazEGA</text>
<text x="1137" y="787.0" class="small">2026-05 · 96,582 utterances</text>
</svg>
